<svg xmlns="http://www.w3.org/2000/svg" xmlns:xlink="http://www.w3.org/1999/xlink" contentStyleType="text/css" data-diagram-type="ACTIVITY" height="410px" preserveAspectRatio="none" style="width:692px;height:410px;background:#FFFFFF;" version="1.1" viewBox="0 0 692 410" width="692px" zoomAndPan="magnify"><title>S&#417; &#273;&#7891; ho&#7841;t &#273;&#7897;ng: S&#7855;p x&#7871;p l&#7883;ch xem ph&#242;ng</title><defs/><g><g class="title" data-source-line="2"><text fill="#000000" font-family="sans-serif" font-size="14" font-weight="bold" lengthAdjust="spacing" textLength="327.9541" x="180.6902" y="32.9951">S&#417; &#273;&#7891; ho&#7841;t &#273;&#7897;ng: S&#7855;p x&#7871;p l&#7883;ch xem ph&#242;ng</text></g><ellipse cx="293.6709" cy="57.2969" fill="#222222" rx="10" ry="10" style="stroke:#222222;stroke-width:1;"/><path d="M447.8896,84.1484 L447.8896,100.2813 L427.8896,104.2813 L447.8896,108.2813 L447.8896,124.4141 A0,0 0 0 0 447.8896,124.4141 L663.3818,124.4141 A0,0 0 0 0 663.3818,124.4141 L663.3818,94.1484 L653.3818,84.1484 L447.8896,84.1484 A0,0 0 0 0 447.8896,84.1484" fill="#FEFFDD" style="stroke:#181818;stroke-width:0.5;"/><path d="M653.3818,84.1484 L653.3818,94.1484 L663.3818,94.1484 L653.3818,84.1484" fill="#FEFFDD" style="stroke:#181818;stroke-width:0.5;"/><text fill="#000000" font-family="sans-serif" font-size="13" lengthAdjust="spacing" textLength="190.3599" x="453.8896" y="101.2153">&#272;&#7843;m b&#7843;o ph&#242;ng c&#242;n tr&#7889;ng v&#224;</text><text fill="#000000" font-family="sans-serif" font-size="13" lengthAdjust="spacing" textLength="123.2778" x="453.8896" y="116.3481">ch&#432;a &#273;&#432;&#7907;c &#273;&#7863;t c&#7885;c.</text><rect fill="#F1F1F1" height="33.9688" rx="12.5" ry="12.5" style="stroke:#181818;stroke-width:0.5;" width="268.4375" x="159.4521" y="87.2969"/><text fill="#000000" font-family="sans-serif" font-size="12" lengthAdjust="spacing" textLength="248.4375" x="169.4521" y="108.4355">Ki&#7875;m tra t&#236;nh tr&#7841;ng gi&#432;&#7901;ng/ph&#242;ng hi&#7879;n c&#243;</text><path d="M469.3174,141.2656 L469.3174,157.3984 L449.3174,161.3984 L469.3174,165.3984 L469.3174,181.5313 A0,0 0 0 0 469.3174,181.5313 L680.3345,181.5313 A0,0 0 0 0 680.3345,181.5313 L680.3345,151.2656 L670.3345,141.2656 L469.3174,141.2656 A0,0 0 0 0 469.3174,141.2656" fill="#FEFFDD" style="stroke:#181818;stroke-width:0.5;"/><path d="M670.3345,141.2656 L670.3345,151.2656 L680.3345,151.2656 L670.3345,141.2656" fill="#FEFFDD" style="stroke:#181818;stroke-width:0.5;"/><text fill="#000000" font-family="sans-serif" font-size="13" lengthAdjust="spacing" textLength="185.8848" x="475.3174" y="158.3325">&#272;&#7889;i chi&#7871;u: khu v&#7921;c, gi&#7899;i t&#237;nh,</text><text fill="#000000" font-family="sans-serif" font-size="13" lengthAdjust="spacing" textLength="122.2939" x="475.3174" y="173.4653">s&#7913;c ch&#7913;a, m&#7913;c gi&#225;.</text><rect fill="#F1F1F1" height="33.9688" rx="12.5" ry="12.5" style="stroke:#181818;stroke-width:0.5;" width="311.293" x="138.0244" y="144.4141"/><text fill="#000000" font-family="sans-serif" font-size="12" lengthAdjust="spacing" textLength="291.293" x="148.0244" y="165.5527">&#272;&#7889;i chi&#7871;u th&#244;ng tin kh&#225;ch v&#7899;i &#273;i&#7873;u ki&#7879;n cho thu&#234;</text><polygon fill="#F1F1F1" points="293.6709,205.4302,305.6709,217.4302,293.6709,229.4302,281.6709,217.4302,293.6709,205.4302" style="stroke:#181818;stroke-width:0.5;"/><text fill="#000000" font-family="sans-serif" font-size="11" lengthAdjust="spacing" textLength="196.9043" x="299.6709" y="202.8359">&#272;&#225;p &#7913;ng &#273;&#7911; &#273;i&#7873;u ki&#7879;n v&#224; c&#242;n tr&#7889;ng?</text><text fill="#000000" font-family="sans-serif" font-size="11" lengthAdjust="spacing" textLength="29.4497" x="252.2212" y="214.8359">&#272;&#250;ng</text><text fill="#000000" font-family="sans-serif" font-size="11" lengthAdjust="spacing" textLength="16.7793" x="305.6709" y="214.8359">Sai</text><rect fill="#F1F1F1" height="33.9688" rx="12.5" ry="12.5" style="stroke:#181818;stroke-width:0.5;" width="270.2246" x="14.9961" y="239.4302"/><text fill="#000000" font-family="sans-serif" font-size="12" lengthAdjust="spacing" textLength="250.2246" x="24.9961" y="260.5688">X&#225;c &#273;&#7883;nh danh s&#225;ch c&#225;c l&#7921;a ch&#7885;n ph&#249; h&#7907;p</text><rect fill="#F1F1F1" height="33.9688" rx="12.5" ry="12.5" style="stroke:#181818;stroke-width:0.5;" width="278.2168" x="11" y="293.3989"/><text fill="#000000" font-family="sans-serif" font-size="12" lengthAdjust="spacing" textLength="258.2168" x="21" y="314.5376">Th&#7889;ng nh&#7845;t th&#7901;i gian xem ph&#242;ng v&#7899;i kh&#225;ch</text><rect fill="#F1F1F1" height="33.9688" rx="12.5" ry="12.5" style="stroke:#181818;stroke-width:0.5;" width="256.0332" x="309.2168" y="239.4302"/><text fill="#000000" font-family="sans-serif" font-size="12" lengthAdjust="spacing" textLength="236.0332" x="319.2168" y="260.5688">Ghi nh&#7853;n kh&#244;ng c&#243; ph&#242;ng kh&#7899;p ti&#234;u ch&#237;</text><polygon fill="#F1F1F1" points="293.6709,333.3677,305.6709,345.3677,293.6709,357.3677,281.6709,345.3677,293.6709,333.3677" style="stroke:#181818;stroke-width:0.5;"/><ellipse cx="293.6709" cy="388.3677" fill="none" rx="11" ry="11" style="stroke:#222222;stroke-width:1;"/><ellipse cx="293.6709" cy="388.3677" fill="#222222" rx="6" ry="6" style="stroke:#222222;stroke-width:1;"/><line style="stroke:#181818;stroke-width:1;" x1="293.6709" x2="293.6709" y1="67.2969" y2="87.2969"/><polygon fill="#181818" points="289.6709,77.2969,293.6709,87.2969,297.6709,77.2969,293.6709,81.2969" style="stroke:#181818;stroke-width:1;"/><line style="stroke:#181818;stroke-width:1;" x1="293.6709" x2="293.6709" y1="121.2656" y2="144.4141"/><polygon fill="#181818" points="289.6709,134.4141,293.6709,144.4141,297.6709,134.4141,293.6709,138.4141" style="stroke:#181818;stroke-width:1;"/><line style="stroke:#181818;stroke-width:1;" x1="150.1084" x2="150.1084" y1="273.3989" y2="293.3989"/><polygon fill="#181818" points="146.1084,283.3989,150.1084,293.3989,154.1084,283.3989,150.1084,287.3989" style="stroke:#181818;stroke-width:1;"/><line style="stroke:#181818;stroke-width:1;" x1="281.6709" x2="150.1084" y1="217.4302" y2="217.4302"/><line style="stroke:#181818;stroke-width:1;" x1="150.1084" x2="150.1084" y1="217.4302" y2="239.4302"/><polygon fill="#181818" points="146.1084,229.4302,150.1084,239.4302,154.1084,229.4302,150.1084,233.4302" style="stroke:#181818;stroke-width:1;"/><line style="stroke:#181818;stroke-width:1;" x1="305.6709" x2="437.2334" y1="217.4302" y2="217.4302"/><line style="stroke:#181818;stroke-width:1;" x1="437.2334" x2="437.2334" y1="217.4302" y2="239.4302"/><polygon fill="#181818" points="433.2334,229.4302,437.2334,239.4302,441.2334,229.4302,437.2334,233.4302" style="stroke:#181818;stroke-width:1;"/><line style="stroke:#181818;stroke-width:1;" x1="150.1084" x2="150.1084" y1="327.3677" y2="345.3677"/><line style="stroke:#181818;stroke-width:1;" x1="150.1084" x2="281.6709" y1="345.3677" y2="345.3677"/><polygon fill="#181818" points="271.6709,341.3677,281.6709,345.3677,271.6709,349.3677,275.6709,345.3677" style="stroke:#181818;stroke-width:1;"/><line style="stroke:#181818;stroke-width:1;" x1="437.2334" x2="437.2334" y1="273.3989" y2="345.3677"/><line style="stroke:#181818;stroke-width:1;" x1="437.2334" x2="305.6709" y1="345.3677" y2="345.3677"/><polygon fill="#181818" points="315.6709,341.3677,305.6709,345.3677,315.6709,349.3677,311.6709,345.3677" style="stroke:#181818;stroke-width:1;"/><line style="stroke:#181818;stroke-width:1;" x1="293.6709" x2="293.6709" y1="178.3828" y2="205.4302"/><polygon fill="#181818" points="289.6709,195.4302,293.6709,205.4302,297.6709,195.4302,293.6709,199.4302" style="stroke:#181818;stroke-width:1;"/><line style="stroke:#181818;stroke-width:1;" x1="293.6709" x2="293.6709" y1="357.3677" y2="377.3677"/><polygon fill="#181818" points="289.6709,367.3677,293.6709,377.3677,297.6709,367.3677,293.6709,371.3677" style="stroke:#181818;stroke-width:1;"/><!--SRC=[PPA_QXj14CRxVOefRH19VofSfWYakHHfrwlpxIBTtA7R4mwu2IbI68E5gs02kOWG8YBYVn1yLxXOeVVOD_6tAmL4qkpkxCry-vjlhXuRhkHK5gHA7XbhIaxj-qb68oCBt0XhBA9qqz9wxlihqgNlMXk3pvmdbFhkTqMdldkgQEBxSwNfD2keqkwESo7EtcZtZMbct98fbPFiJDHMJgr8NXlVVop8JYLPzuirJb3cd7ApkV7z5yvVRaL88_CJatBtGy6bpMXgScq5qVhITuk2Zh6MknUHTST1gfyZcBclX3obDpSIo45teG9xzyUIyls5UY4o7b5G5IA1NZytI3Tefo6htGD4h64QQzUYivdlhmtg0VIXeV6EIvT8RTpoVxezjGGQJH2uLGEq68MiMx4U1CBQzpyLKh790HKnoerhz_7C2HsiBrrR4Jw3AupWnxymeUDz2uuEmPPnhEmuFyHRHCaxT1Fhp-7xI6AfOtygt6EAjpAoN71mzP5mN5J3RUbRlRMMjU- -MuXZL0QialVclZDgwzfGP9CweuDKcjtphxI9zQjex4ESsltVqZ4KhokuxfODADng63mm9_XlokeP]--></g></svg>