<svg xmlns="http://www.w3.org/2000/svg" xmlns:xlink="http://www.w3.org/1999/xlink" contentStyleType="text/css" data-diagram-type="ACTIVITY" height="641px" preserveAspectRatio="none" style="width:1251px;height:641px;background:#FFFFFF;" version="1.1" viewBox="0 0 1251 641" width="1251px" zoomAndPan="magnify"><title>S&#417; &#273;&#7891; ho&#7841;t &#273;&#7897;ng: Xem ph&#242;ng</title><defs/><g><g class="title" data-source-line="2"><text fill="#000000" font-family="sans-serif" font-size="14" font-weight="bold" lengthAdjust="spacing" textLength="229.1338" x="509.8271" y="32.9951">S&#417; &#273;&#7891; ho&#7841;t &#273;&#7897;ng: Xem ph&#242;ng</text></g><rect fill="none" height="20.9531" style="stroke:none;stroke-width:1;" width="1218.7881" x="15" y="50.042"/><ellipse cx="338.1841" cy="85.9951" fill="#222222" rx="10" ry="10" style="stroke:#222222;stroke-width:1;"/><rect fill="#F1F1F1" height="33.9688" rx="12.5" ry="12.5" style="stroke:#181818;stroke-width:0.5;" width="223.4316" x="226.4683" y="115.9951"/><text fill="#000000" font-family="sans-serif" font-size="12" lengthAdjust="spacing" textLength="203.4316" x="236.4683" y="137.1338">&#272;&#7871;n chi nh&#225;nh theo &#273;&#250;ng l&#7883;ch h&#7865;n</text><rect fill="#F1F1F1" height="33.9688" rx="12.5" ry="12.5" style="stroke:#181818;stroke-width:0.5;" width="205.2793" x="235.5444" y="431.3198"/><text fill="#000000" font-family="sans-serif" font-size="12" lengthAdjust="spacing" textLength="185.2793" x="245.5444" y="452.4585">C&#226;n nh&#7855;c v&#224; &#273;&#432;a ra quy&#7871;t &#273;&#7883;nh</text><polygon fill="#F1F1F1" points="338.1841,489.1875,350.1841,501.1875,338.1841,513.1875,326.1841,501.1875,338.1841,489.1875" style="stroke:#181818;stroke-width:0.5;"/><text fill="#000000" font-family="sans-serif" font-size="11" lengthAdjust="spacing" textLength="85.8354" x="344.1841" y="486.5933">X&#225;c nh&#7853;n thu&#234;?</text><text fill="#000000" font-family="sans-serif" font-size="11" lengthAdjust="spacing" textLength="39.2144" x="286.9697" y="498.5933">&#272;&#7891;ng &#253;</text><text fill="#000000" font-family="sans-serif" font-size="11" lengthAdjust="spacing" textLength="90.8843" x="350.1841" y="498.5933">Ch&#432;a quy&#7871;t &#273;&#7883;nh</text><rect fill="#F1F1F1" height="33.9688" rx="12.5" ry="12.5" style="stroke:#181818;stroke-width:0.5;" width="310.2383" x="21" y="523.1875"/><text fill="#000000" font-family="sans-serif" font-size="12" lengthAdjust="spacing" textLength="290.2383" x="31" y="544.3262">Chuy&#7875;n sang quy tr&#236;nh &#272;&#7863;t c&#7885;c &amp; X&#225;c nh&#7853;n thu&#234;</text><rect fill="#F1F1F1" height="33.9688" rx="12.5" ry="12.5" style="stroke:#181818;stroke-width:0.5;" width="298.0215" x="351.2383" y="523.1875"/><text fill="#000000" font-family="sans-serif" font-size="12" lengthAdjust="spacing" textLength="278.0215" x="361.2383" y="544.3262">H&#7865;n xem th&#234;m ph&#242;ng ho&#7863;c &#273;i&#7873;u ch&#7881;nh ti&#234;u ch&#237;</text><polygon fill="#F1F1F1" points="338.1841,563.1563,350.1841,575.1563,338.1841,587.1563,326.1841,575.1563,338.1841,563.1563" style="stroke:#181818;stroke-width:0.5;"/><ellipse cx="338.1841" cy="618.1563" fill="none" rx="11" ry="11" style="stroke:#222222;stroke-width:1;"/><ellipse cx="338.1841" cy="618.1563" fill="#222222" rx="6" ry="6" style="stroke:#222222;stroke-width:1;"/><line style="stroke:#000000;stroke-width:1.5;" x1="15" x2="15" y1="50.042" y2="629.1563"/><rect fill="#F1F1F1" height="33.9688" rx="12.5" ry="12.5" style="stroke:#181818;stroke-width:0.5;" width="250.707" x="699.2764" y="169.9639"/><text fill="#000000" font-family="sans-serif" font-size="12" lengthAdjust="spacing" textLength="230.707" x="709.2764" y="191.1025">D&#7851;n kh&#225;ch h&#224;ng &#273;i xem ph&#242;ng th&#7921;c t&#7871;</text><path d="M968.4805,220.7842 L968.4805,236.917 L948.4805,240.917 L968.4805,244.917 L968.4805,261.0498 A0,0 0 0 0 968.4805,261.0498 L1226.9272,261.0498 A0,0 0 0 0 1226.9272,261.0498 L1226.9272,230.7842 L1216.9272,220.7842 L968.4805,220.7842 A0,0 0 0 0 968.4805,220.7842" fill="#FEFFDD" style="stroke:#181818;stroke-width:0.5;"/><path d="M1216.9272,220.7842 L1216.9272,230.7842 L1226.9272,230.7842 L1216.9272,220.7842" fill="#FEFFDD" style="stroke:#181818;stroke-width:0.5;"/><text fill="#000000" font-family="sans-serif" font-size="13" lengthAdjust="spacing" textLength="233.3145" x="974.4805" y="237.8511">Gi&#7899;i thi&#7879;u: gi&#225; thu&#234;, s&#7889; ng&#432;&#7901;i t&#7889;i &#273;a,</text><text fill="#000000" font-family="sans-serif" font-size="13" lengthAdjust="spacing" textLength="208.9331" x="974.4805" y="252.9839">ph&#237; &#273;i&#7879;n n&#432;&#7899;c, quy &#273;&#7883;nh &#273;&#7863;t c&#7885;c.</text><rect fill="#F1F1F1" height="33.9688" rx="12.5" ry="12.5" style="stroke:#181818;stroke-width:0.5;" width="247.7012" x="700.7793" y="223.9326"/><text fill="#000000" font-family="sans-serif" font-size="12" lengthAdjust="spacing" textLength="227.7012" x="710.7793" y="245.0713">Gi&#7899;i thi&#7879;u chi ti&#7871;t th&#244;ng tin v&#224; n&#7897;i quy</text><rect fill="#F1F1F1" height="33.9688" rx="12.5" ry="12.5" style="stroke:#181818;stroke-width:0.5;" width="330.7402" x="659.2598" y="333.3511"/><text fill="#000000" font-family="sans-serif" font-size="12" lengthAdjust="spacing" textLength="310.7402" x="669.2598" y="354.4897">T&#432; v&#7845;n h&#236;nh th&#7913;c: Thu&#234; nguy&#234;n ph&#242;ng ho&#7863;c &#7902; gh&#233;p</text><polygon fill="#F1F1F1" points="824.6299,284.9487,836.6299,296.9487,824.6299,308.9487,812.6299,296.9487,824.6299,284.9487" style="stroke:#181818;stroke-width:0.5;"/><text fill="#000000" font-family="sans-serif" font-size="11" lengthAdjust="spacing" textLength="131.4683" x="830.6299" y="282.3545">Kh&#225;ch thu&#234; theo nh&#243;m?</text><text fill="#000000" font-family="sans-serif" font-size="11" lengthAdjust="spacing" textLength="23.4019" x="830.6299" y="319.1592">Ph&#7843;i</text><text fill="#000000" font-family="sans-serif" font-size="11" lengthAdjust="spacing" textLength="34.8691" x="836.6299" y="294.3545">Kh&#244;ng</text><polygon fill="#F1F1F1" points="824.6299,387.3198,836.6299,399.3198,824.6299,411.3198,812.6299,399.3198,824.6299,387.3198" style="stroke:#181818;stroke-width:0.5;"/><line style="stroke:#000000;stroke-width:1.5;" x1="653.2598" x2="653.2598" y1="50.042" y2="629.1563"/><line style="stroke:#000000;stroke-width:1.5;" x1="1231.9272" x2="1231.9272" y1="50.042" y2="629.1563"/><line style="stroke:#181818;stroke-width:1;" x1="338.1841" x2="338.1841" y1="95.9951" y2="115.9951"/><polygon fill="#181818" points="334.1841,105.9951,338.1841,115.9951,342.1841,105.9951,338.1841,109.9951" style="stroke:#181818;stroke-width:1;"/><line style="stroke:#181818;stroke-width:1;" x1="326.1841" x2="176.1191" y1="501.1875" y2="501.1875"/><line style="stroke:#181818;stroke-width:1;" x1="176.1191" x2="176.1191" y1="501.1875" y2="523.1875"/><polygon fill="#181818" points="172.1191,513.1875,176.1191,523.1875,180.1191,513.1875,176.1191,517.1875" style="stroke:#181818;stroke-width:1;"/><line style="stroke:#181818;stroke-width:1;" x1="350.1841" x2="500.249" y1="501.1875" y2="501.1875"/><line style="stroke:#181818;stroke-width:1;" x1="500.249" x2="500.249" y1="501.1875" y2="523.1875"/><polygon fill="#181818" points="496.249,513.1875,500.249,523.1875,504.249,513.1875,500.249,517.1875" style="stroke:#181818;stroke-width:1;"/><line style="stroke:#181818;stroke-width:1;" x1="176.1191" x2="176.1191" y1="557.1563" y2="575.1563"/><line style="stroke:#181818;stroke-width:1;" x1="176.1191" x2="326.1841" y1="575.1563" y2="575.1563"/><polygon fill="#181818" points="316.1841,571.1563,326.1841,575.1563,316.1841,579.1563,320.1841,575.1563" style="stroke:#181818;stroke-width:1;"/><line style="stroke:#181818;stroke-width:1;" x1="500.249" x2="500.249" y1="557.1563" y2="575.1563"/><line style="stroke:#181818;stroke-width:1;" x1="500.249" x2="350.1841" y1="575.1563" y2="575.1563"/><polygon fill="#181818" points="360.1841,571.1563,350.1841,575.1563,360.1841,579.1563,356.1841,575.1563" style="stroke:#181818;stroke-width:1;"/><line style="stroke:#181818;stroke-width:1;" x1="338.1841" x2="338.1841" y1="465.2886" y2="489.1875"/><polygon fill="#181818" points="334.1841,479.1875,338.1841,489.1875,342.1841,479.1875,338.1841,483.1875" style="stroke:#181818;stroke-width:1;"/><line style="stroke:#181818;stroke-width:1;" x1="338.1841" x2="338.1841" y1="587.1563" y2="607.1563"/><polygon fill="#181818" points="334.1841,597.1563,338.1841,607.1563,342.1841,597.1563,338.1841,601.1563" style="stroke:#181818;stroke-width:1;"/><line style="stroke:#181818;stroke-width:1;" x1="824.6299" x2="824.6299" y1="203.9326" y2="223.9326"/><polygon fill="#181818" points="820.6299,213.9326,824.6299,223.9326,828.6299,213.9326,824.6299,217.9326" style="stroke:#181818;stroke-width:1;"/><line style="stroke:#181818;stroke-width:1;" x1="824.6299" x2="824.6299" y1="308.9487" y2="333.3511"/><polygon fill="#181818" points="820.6299,323.3511,824.6299,333.3511,828.6299,323.3511,824.6299,327.3511" style="stroke:#181818;stroke-width:1;"/><line style="stroke:#181818;stroke-width:1;" x1="836.6299" x2="1000" y1="296.9487" y2="296.9487"/><polygon fill="#181818" points="996,340.3354,1000,350.3354,1004,340.3354,1000,344.3354" style="stroke:#181818;stroke-width:1;"/><line style="stroke:#181818;stroke-width:1;" x1="1000" x2="1000" y1="296.9487" y2="399.3198"/><line style="stroke:#181818;stroke-width:1;" x1="1000" x2="836.6299" y1="399.3198" y2="399.3198"/><polygon fill="#181818" points="846.6299,395.3198,836.6299,399.3198,846.6299,403.3198,842.6299,399.3198" style="stroke:#181818;stroke-width:1;"/><line style="stroke:#181818;stroke-width:1;" x1="824.6299" x2="824.6299" y1="367.3198" y2="387.3198"/><polygon fill="#181818" points="820.6299,377.3198,824.6299,387.3198,828.6299,377.3198,824.6299,381.3198" style="stroke:#181818;stroke-width:1;"/><line style="stroke:#181818;stroke-width:1;" x1="824.6299" x2="824.6299" y1="257.9014" y2="284.9487"/><polygon fill="#181818" points="820.6299,274.9487,824.6299,284.9487,828.6299,274.9487,824.6299,278.9487" style="stroke:#181818;stroke-width:1;"/><line style="stroke:#181818;stroke-width:1;" x1="338.1841" x2="338.1841" y1="149.9639" y2="154.9639"/><line style="stroke:#181818;stroke-width:1;" x1="338.1841" x2="824.6299" y1="154.9639" y2="154.9639"/><line style="stroke:#181818;stroke-width:1;" x1="824.6299" x2="824.6299" y1="154.9639" y2="169.9639"/><polygon fill="#181818" points="820.6299,159.9639,824.6299,169.9639,828.6299,159.9639,824.6299,163.9639" style="stroke:#181818;stroke-width:1;"/><line style="stroke:#181818;stroke-width:1;" x1="824.6299" x2="824.6299" y1="411.3198" y2="416.3198"/><line style="stroke:#181818;stroke-width:1;" x1="824.6299" x2="338.1841" y1="416.3198" y2="416.3198"/><line style="stroke:#181818;stroke-width:1;" x1="338.1841" x2="338.1841" y1="416.3198" y2="431.3198"/><polygon fill="#181818" points="334.1841,421.3198,338.1841,431.3198,342.1841,421.3198,338.1841,425.3198" style="stroke:#181818;stroke-width:1;"/><text fill="#000000" font-family="sans-serif" font-size="18" lengthAdjust="spacing" textLength="102.2168" x="283.0215" y="66.75">Kh&#225;ch thu&#234;</text><text fill="#000000" font-family="sans-serif" font-size="18" lengthAdjust="spacing" textLength="135.4219" x="874.8826" y="66.75">Nh&#226;n vi&#234;n Sale</text><!--SRC=[PPBFYXD14CRl_HJVIJOGV82PWuS82e88sSDUXydiTBEPcZZJMGpa8Xv45i6m9rcKZU9Xey7u1nQd4GyTyXxz9bRtp2wwUsggk-khhtvLzP6YIL8b1TAIHaghaePwDiumKad1Dq8hpT5mjyHsuSmfPEcQfGx1MyeZ76G59j9-fro8-IDfbwc4bbExcejQ9vKMqVQDQ_uGKgb0_4x-FIjPmJQKO-pC2QT8r_oYc2KUI_k1SApiYZ1CnjbSHFTTyvbmr6fBUyvPsuN2i-lABEZCjnIQ2yKYUg2SELDyoUVBQIYi5Jzflh8__NV55UmvY7jGU3gTnO9AdQ5IkTG2-5yWGgxiicsgZzgP1IZVRPnvnryuKkmcwOFpsCtQM-Ci0lalPsdVwmTS9zmvdysbHkhCw_Iko6W4NrW8TOYzV-6rY1ZNZ-9UpmU4lIVCwAFgSHqWsjzjSEoQJyH0lWIapboa4VP3DkNJcGVOuV4pkqpXp7laqbvCOf6DwonKP1mzxqCTtXfVDF2J8AxwDGsujelT9a6L-8u2pgwhkFL_mCdX-vfQYMldl07cb7tOtvtxWMG5yu9G9tpj0UagjE5tvOeFxk2Mv9NpWVHMRlZen1_wLGhRmUDU5JSWXF4yzrlXp2iFZZVDHtOTTnngNKx-0W00]--></g></svg>