<svg xmlns="http://www.w3.org/2000/svg" xmlns:xlink="http://www.w3.org/1999/xlink" contentStyleType="text/css" data-diagram-type="ACTIVITY" height="556px" preserveAspectRatio="none" style="width:1334px;height:556px;background:#FFFFFF;" version="1.1" viewBox="0 0 1334 556" width="1334px" zoomAndPan="magnify"><title>S&#417; &#273;&#7891; ho&#7841;t &#273;&#7897;ng: &#272;&#259;ng k&#253; thu&#234; ph&#242;ng</title><defs/><g><g class="title" data-source-line="1"><text fill="#000000" font-family="sans-serif" font-size="14" font-weight="bold" lengthAdjust="spacing" textLength="299.7285" x="515.7109" y="32.9951">S&#417; &#273;&#7891; ho&#7841;t &#273;&#7897;ng: &#272;&#259;ng k&#253; thu&#234; ph&#242;ng</text></g><rect fill="none" height="20.9531" style="stroke:none;stroke-width:1;" width="1301.1504" x="15" y="50.042"/><ellipse cx="170.7256" cy="85.9951" fill="#222222" rx="10" ry="10" style="stroke:#222222;stroke-width:1;"/><rect fill="#F1F1F1" height="33.9688" rx="12.5" ry="12.5" style="stroke:#181818;stroke-width:0.5;" width="270.5527" x="35.4492" y="115.9951"/><text fill="#000000" font-family="sans-serif" font-size="12" lengthAdjust="spacing" textLength="250.5527" x="45.4492" y="137.1338">Li&#234;n h&#7879; v&#7899;i nh&#226;n vi&#234;n sale &#273;&#7875; &#273;&#432;&#7907;c t&#432; v&#7845;n</text><path d="M340.4512,166.8154 L340.4512,182.9482 L320.4512,186.9482 L340.4512,190.9482 L340.4512,207.0811 A0,0 0 0 0 340.4512,207.0811 L653.6274,207.0811 A0,0 0 0 0 653.6274,207.0811 L653.6274,176.8154 L643.6274,166.8154 L340.4512,166.8154 A0,0 0 0 0 340.4512,166.8154" fill="#FEFFDD" style="stroke:#181818;stroke-width:0.5;"/><path d="M643.6274,166.8154 L643.6274,176.8154 L653.6274,176.8154 L643.6274,166.8154" fill="#FEFFDD" style="stroke:#181818;stroke-width:0.5;"/><text fill="#000000" font-family="sans-serif" font-size="13" lengthAdjust="spacing" textLength="288.0439" x="346.4512" y="183.8823">Bao g&#7891;m: S&#7889; l&#432;&#7907;ng ng&#432;&#7901;i, gi&#7899;i t&#237;nh, khu v&#7921;c,</text><text fill="#000000" font-family="sans-serif" font-size="13" lengthAdjust="spacing" textLength="266.0239" x="346.4512" y="199.0151">m&#7913;c gi&#225;, th&#7901;i gian &#7903;, c&#225;c ti&#234;u ch&#237; &#432;u ti&#234;n.</text><rect fill="#F1F1F1" height="33.9688" rx="12.5" ry="12.5" style="stroke:#181818;stroke-width:0.5;" width="299.4512" x="21" y="169.9639"/><text fill="#000000" font-family="sans-serif" font-size="12" lengthAdjust="spacing" textLength="279.4512" x="31" y="191.1025">Cung c&#7845;p th&#244;ng tin c&#225; nh&#226;n v&#224; y&#234;u c&#7847;u l&#432;u tr&#250;</text><line style="stroke:#000000;stroke-width:1.5;" x1="15" x2="15" y1="50.042" y2="544.0547"/><rect fill="#F1F1F1" height="33.9688" rx="12.5" ry="12.5" style="stroke:#181818;stroke-width:0.5;" width="294.0547" x="840.04" y="227.0811"/><text fill="#000000" font-family="sans-serif" font-size="12" lengthAdjust="spacing" textLength="274.0547" x="850.04" y="248.2197">Ti&#7871;p nh&#7853;n v&#224; r&#224; so&#225;t y&#234;u c&#7847;u c&#7911;a kh&#225;ch h&#224;ng</text><rect fill="none" height="82.2656" style="stroke:#000000;stroke-width:1.5;" width="329.5586" x="822.2881" y="271.8516"/><path d="M1141.8467,271.8516 L1141.8467,281.1484 L1131.8467,291.1484 L822.2881,291.1484" fill="none" style="stroke:#000000;stroke-width:1.5;"/><text fill="#000000" font-family="sans-serif" font-size="14" lengthAdjust="spacing" textLength="309.5586" x="825.2881" y="285.8467">Th&#7921;c hi&#7879;n Usecase: S&#7855;p x&#7871;p l&#7883;ch xem ph&#242;ng</text><rect fill="#F1F1F1" height="33.9688" rx="12.5" ry="12.5" style="stroke:#181818;stroke-width:0.5;" width="266.7852" x="853.6748" y="308.1484"/><text fill="#000000" font-family="sans-serif" font-size="12" lengthAdjust="spacing" textLength="246.7852" x="863.6748" y="329.2871">Ki&#7875;m tra v&#224; &#273;&#7889;i chi&#7871;u c&#225;c ph&#242;ng ph&#249; h&#7907;p</text><polygon fill="#F1F1F1" points="895.8179,374.1172,1078.3169,374.1172,1090.3169,386.1172,1078.3169,398.1172,895.8179,398.1172,883.8179,386.1172,895.8179,374.1172" style="stroke:#181818;stroke-width:0.5;"/><text fill="#000000" font-family="sans-serif" font-size="11" lengthAdjust="spacing" textLength="182.499" x="895.8179" y="389.9253">T&#236;m th&#7845;y ph&#242;ng/gi&#432;&#7901;ng ph&#249; h&#7907;p?</text><text fill="#000000" font-family="sans-serif" font-size="11" lengthAdjust="spacing" textLength="14.4106" x="869.4072" y="383.5229">C&#243;</text><text fill="#000000" font-family="sans-serif" font-size="11" lengthAdjust="spacing" textLength="34.8691" x="1090.3169" y="383.5229">Kh&#244;ng</text><rect fill="#F1F1F1" height="33.9688" rx="12.5" ry="12.5" style="stroke:#181818;stroke-width:0.5;" width="263.873" x="688.7153" y="408.1172"/><text fill="#000000" font-family="sans-serif" font-size="12" lengthAdjust="spacing" textLength="243.873" x="698.7153" y="429.2559">Ghi nh&#7853;n th&#244;ng tin &#273;&#259;ng k&#253; l&#234;n h&#7879; th&#7889;ng</text><rect fill="#F1F1F1" height="33.9688" rx="12.5" ry="12.5" style="stroke:#181818;stroke-width:0.5;" width="312.0488" x="664.6274" y="462.0859"/><text fill="#000000" font-family="sans-serif" font-size="12" lengthAdjust="spacing" textLength="292.0488" x="674.6274" y="483.2246">Th&#244;ng b&#225;o l&#7883;ch h&#7865;n qua email ho&#7863;c s&#7889; &#273;i&#7879;n tho&#7841;i</text><ellipse cx="820.6519" cy="527.0547" fill="none" rx="11" ry="11" style="stroke:#222222;stroke-width:1;"/><ellipse cx="820.6519" cy="527.0547" fill="#222222" rx="6" ry="6" style="stroke:#222222;stroke-width:1;"/><rect fill="#F1F1F1" height="33.9688" rx="12.5" ry="12.5" style="stroke:#181818;stroke-width:0.5;" width="306.0137" x="1000.4761" y="408.1172"/><text fill="#000000" font-family="sans-serif" font-size="12" lengthAdjust="spacing" textLength="286.0137" x="1010.4761" y="429.2559">Th&#244;ng b&#225;o t&#236;nh tr&#7841;ng h&#7871;t ph&#242;ng/kh&#244;ng ph&#249; h&#7907;p</text><rect fill="#F1F1F1" height="33.9688" rx="12.5" ry="12.5" style="stroke:#181818;stroke-width:0.5;" width="313.6133" x="996.6763" y="462.0859"/><text fill="#000000" font-family="sans-serif" font-size="12" lengthAdjust="spacing" textLength="293.6133" x="1006.6763" y="483.2246">&#272;&#7873; xu&#7845;t ph&#432;&#417;ng &#225;n kh&#225;c ho&#7863;c l&#432;u danh s&#225;ch ch&#7901;</text><ellipse cx="1153.4829" cy="527.0547" fill="none" rx="11" ry="11" style="stroke:#222222;stroke-width:1;"/><ellipse cx="1153.4829" cy="527.0547" fill="#222222" rx="6" ry="6" style="stroke:#222222;stroke-width:1;"/><line style="stroke:#000000;stroke-width:1.5;" x1="658.6274" x2="658.6274" y1="50.042" y2="544.0547"/><line style="stroke:#000000;stroke-width:1.5;" x1="1314.2896" x2="1314.2896" y1="50.042" y2="544.0547"/><line style="stroke:#181818;stroke-width:1;" x1="170.7256" x2="170.7256" y1="95.9951" y2="115.9951"/><polygon fill="#181818" points="166.7256,105.9951,170.7256,115.9951,174.7256,105.9951,170.7256,109.9951" style="stroke:#181818;stroke-width:1;"/><line style="stroke:#181818;stroke-width:1;" x1="170.7256" x2="170.7256" y1="149.9639" y2="169.9639"/><polygon fill="#181818" points="166.7256,159.9639,170.7256,169.9639,174.7256,159.9639,170.7256,163.9639" style="stroke:#181818;stroke-width:1;"/><line style="stroke:#181818;stroke-width:1;" x1="987.0674" x2="987.0674" y1="261.0498" y2="308.1484"/><polygon fill="#181818" points="983.0674,298.1484,987.0674,308.1484,991.0674,298.1484,987.0674,302.1484" style="stroke:#181818;stroke-width:1;"/><line style="stroke:#181818;stroke-width:1;" x1="820.6519" x2="820.6519" y1="442.0859" y2="462.0859"/><polygon fill="#181818" points="816.6519,452.0859,820.6519,462.0859,824.6519,452.0859,820.6519,456.0859" style="stroke:#181818;stroke-width:1;"/><line style="stroke:#181818;stroke-width:1;" x1="820.6519" x2="820.6519" y1="496.0547" y2="516.0547"/><polygon fill="#181818" points="816.6519,506.0547,820.6519,516.0547,824.6519,506.0547,820.6519,510.0547" style="stroke:#181818;stroke-width:1;"/><line style="stroke:#181818;stroke-width:1;" x1="1153.4829" x2="1153.4829" y1="442.0859" y2="462.0859"/><polygon fill="#181818" points="1149.4829,452.0859,1153.4829,462.0859,1157.4829,452.0859,1153.4829,456.0859" style="stroke:#181818;stroke-width:1;"/><line style="stroke:#181818;stroke-width:1;" x1="1153.4829" x2="1153.4829" y1="496.0547" y2="516.0547"/><polygon fill="#181818" points="1149.4829,506.0547,1153.4829,516.0547,1157.4829,506.0547,1153.4829,510.0547" style="stroke:#181818;stroke-width:1;"/><line style="stroke:#181818;stroke-width:1;" x1="883.8179" x2="820.6519" y1="386.1172" y2="386.1172"/><line style="stroke:#181818;stroke-width:1;" x1="820.6519" x2="820.6519" y1="386.1172" y2="408.1172"/><polygon fill="#181818" points="816.6519,398.1172,820.6519,408.1172,824.6519,398.1172,820.6519,402.1172" style="stroke:#181818;stroke-width:1;"/><line style="stroke:#181818;stroke-width:1;" x1="1090.3169" x2="1153.4829" y1="386.1172" y2="386.1172"/><line style="stroke:#181818;stroke-width:1;" x1="1153.4829" x2="1153.4829" y1="386.1172" y2="408.1172"/><polygon fill="#181818" points="1149.4829,398.1172,1153.4829,408.1172,1157.4829,398.1172,1153.4829,402.1172" style="stroke:#181818;stroke-width:1;"/><line style="stroke:#181818;stroke-width:1;" x1="987.0674" x2="987.0674" y1="342.1172" y2="374.1172"/><polygon fill="#181818" points="983.0674,364.1172,987.0674,374.1172,991.0674,364.1172,987.0674,368.1172" style="stroke:#181818;stroke-width:1;"/><line style="stroke:#181818;stroke-width:1;" x1="170.7256" x2="170.7256" y1="203.9326" y2="212.0811"/><line style="stroke:#181818;stroke-width:1;" x1="170.7256" x2="987.0674" y1="212.0811" y2="212.0811"/><line style="stroke:#181818;stroke-width:1;" x1="987.0674" x2="987.0674" y1="212.0811" y2="227.0811"/><polygon fill="#181818" points="983.0674,217.0811,987.0674,227.0811,991.0674,217.0811,987.0674,221.0811" style="stroke:#181818;stroke-width:1;"/><text fill="#000000" font-family="sans-serif" font-size="18" lengthAdjust="spacing" textLength="102.2168" x="285.7053" y="66.75">Kh&#225;ch thu&#234;</text><text fill="#000000" font-family="sans-serif" font-size="18" lengthAdjust="spacing" textLength="135.4219" x="918.7476" y="66.75">Nh&#226;n vi&#234;n Sale</text><!--SRC=[RLDDQzj04BtlhnXogGsclSk7GdF8mQKNkpz0bHNjOccbMglWKFTGVCYXbuYUIYcD6aoeYQdx0IKI9OSr-X_xJpgpiXs7zE2FNTwyUU_Dh18gzA5V5x3EJVK1U6pAGjd3Hnaui3vVpsG08_qN5C_q0XAkVyg0iMcFwyBZpUsKfSeTA-Oy5teXWPlg34vCzKc0vFghX1DxdRhOYfXd-5slJ7NfWQfNY2pdiikSmmmxUNX8a5N_neCI4ZnTR5dq1PpgHKQOgmp2UfM16kkoosIiV1YBW2i6yCoD8K0laGDzK-M4mrR89WFwzrbq811MdD9BoJimuXcf_U5r0CiZKttp4A6B3ieWF1vS2QRwqY4ng5bO4LmlmKeWSu-PBuT0EZ2Q5tkc-sXwofo1CELjWaPCkMoSZF6JnXh3tlFacUhAHK4sMgulPD1b2IOhb8Wb70muoGIEyiyal4nzpqrzibb-Js1YEuIcUe-r4p_QZEe0tg0h0AU7LRC84tDjVnf4Bj06ASiQPqq5_TpG42-JBdlBc3Y6ra1VHnH7EJ_Te9u4miPv3_-qZI1VGkjG_shRje_WY5CNNMB-LdX2OSyT6DpDU9tljcot6GZUnjNiJFhG9VdOhCehNSHuNHQYSNjqLwx-soZSRIfDEQUaRU7W7fzjWpGt4bvdBlYHAqBxIFvuA0YtQvqtmr3svOY695LnmlmmzQ7LitJjXznANqjyFcEimYjiSQksoOuQsFuORFdwt5JlO9BX50XRhsegrOLiDcQhopwCeOligTqZZxPuNvWSYkD_]--></g></svg>